<svg width="50" height="50" viewBox="0 0 50 50" fill="none" xmlns="http://www.w3.org/2000/svg">
<circle cx="25" cy="25" r="25" fill="#525A55"/>
<path d="M34.7954 33.9181L30.0586 29.1812L34.7954 33.9181ZM30.0586 29.1812C30.8189 28.421 31.4219 27.5184 31.8334 26.525C32.2449 25.5317 32.4566 24.467 32.4566 23.3918C32.4566 22.3166 32.2449 21.2519 31.8334 20.2585C31.4219 19.2652 30.8189 18.3626 30.0586 17.6023C29.2983 16.842 28.3957 16.2389 27.4023 15.8275C26.409 15.416 25.3443 15.2042 24.2691 15.2042C23.1939 15.2042 22.1292 15.416 21.1359 15.8275C20.1425 16.2389 19.2399 16.842 18.4796 17.6023C16.9442 19.1378 16.0815 21.2203 16.0815 23.3918C16.0815 25.5632 16.9442 27.6458 18.4796 29.1812C20.0151 30.7167 22.0976 31.5793 24.2691 31.5793C26.4406 31.5793 28.5231 30.7167 30.0586 29.1812V29.1812Z" stroke="white" stroke-width="3" stroke-linecap="round" stroke-linejoin="round"/>
</svg>
